# xmcd
#
# Track frame offsets: 
#        183
#        17495
#        36345
#
# Disc length: 726 seconds
#
# Revision: 0
# Processed by: cddbd v1.5.2PL0 Copyright (c) Steve Scherf et al.
# Submitted via: ExactAudioCopy v0.95b4
#
DISCID=1a02d403
DTITLE=John Denver - Calypso
DYEAR=1993
DGENRE=Country
TTITLE0=Calypso (Version '93)
TTITLE1=Islands
TTITLE2=Windsong
EXTD=
EXTT0=
EXTT1=
EXTT2=
PLAYORDER=
